<svg width="22" height="22" viewBox="0 0 22 22" fill="none" xmlns="http://www.w3.org/2000/svg">
<g clip-path="url(#clip0)">
<path d="M18.9794 10.8571L10.5167 21.7143C4.7085 21.7143 0 16.8534 0 10.8571C0 4.8609 4.7085 0 10.5167 0L18.9794 10.8571Z" fill="#FF7C48"/>
<path d="M10.5167 0C16.325 0 21.0335 4.8609 21.0335 10.8571C21.0335 16.8534 16.325 21.7143 10.5167 21.7143V0Z" fill="#FF415B"/>
<path d="M4.76363 6.82976L6.61548 4.91797L11.4428 9.90155L13.6013 14.0417L9.59096 11.8133L4.76363 6.82976Z" fill="#F5F2F1"/>
<path d="M16.2699 14.8848L14.418 16.7966L9.59071 11.813L11.4426 9.90118L16.2699 14.8848Z" fill="#DBD1CC"/>
<path d="M6.6154 16.7966L4.76355 14.8848L9.59088 9.90118L13.6012 7.67283L11.4427 11.813L6.6154 16.7966Z" fill="#F5F2F1"/>
<path d="M14.418 4.91748L16.2698 6.82927L10.5165 12.7728L10.509 8.95296L14.418 4.91748Z" fill="#DBD1CC"/>
</g>
<defs>
<clipPath id="clip0">
<rect width="21.0335" height="21.7143" fill="white"/>
</clipPath>
</defs>
</svg>
